<svg width="38" height="36" xmlns="http://www.w3.org/2000/svg" xmlns:xlink="http://www.w3.org/1999/xlink" xmlns:svgjs="http://svgjs.com/svgjs" viewBox="66 24 38 36"><svg width="30" height="30" xmlns="http://www.w3.org/2000/svg" xmlns:xlink="http://www.w3.org/1999/xlink" xmlns:svgjs="http://svgjs.com/svgjs" fill="#fff" x="72" y="24"><svg xmlns="http://www.w3.org/2000/svg" xmlns:xlink="http://www.w3.org/1999/xlink" width="30" height="30" viewBox="0 0.421 29.159 29.159"><path paint-order="stroke fill markers" fill-rule="evenodd" d="M14.58.421c8.051 0 14.579 6.528 14.579 14.58s-6.528 14.58-14.58 14.58S0 23.052 0 15 6.527.42 14.58.42z"/></svg></svg><svg width="38" height="34" xmlns="http://www.w3.org/2000/svg" xmlns:xlink="http://www.w3.org/1999/xlink" xmlns:svgjs="http://svgjs.com/svgjs" viewBox="0.082 0 37.836 34" fill="#7180bf" opacity=".388" x="66" y="26"><svg xmlns="http://www.w3.org/2000/svg" width="38" height="34" viewBox="0.525 0.953 36.488 32.788"><path paint-order="stroke fill markers" fill-rule="evenodd" d="M1.689 19.57s6.83 4.494 11.393-2.357c3.756-5.638 7.01-2.476 12.364-4.966.82-.376 1.997-1.138 3.282-2.299C35.987 3.391 37.013.953 37.013.953l-1.26 26.053s-16.269 8.114-19.978 6.53C12.066 31.95.525 25.693.525 25.693l1.164-6.123z"/></svg></svg></svg>